<?xml version="1.0" encoding="UTF-8"?>
<svg width="258px" height="80px" viewBox="0 0 258 80" version="1.1" xmlns="http://www.w3.org/2000/svg" xmlns:xlink="http://www.w3.org/1999/xlink">
    <title>Citrix_Logo_Trademark</title>
    <defs>
        <filter id="filter-1">
            <feColorMatrix in="SourceGraphic" type="matrix" values="0 0 0 0 0.741176 0 0 0 0 0.941176 0 0 0 0 0.929412 0 0 0 1.000000 0"></feColorMatrix>
        </filter>
    </defs>
    <g id="Login-Pages" stroke="none" stroke-width="1" fill="none" fill-rule="evenodd">
        <g id="Forgot-password" transform="translate(-231.000000, -472.000000)">
            <g id="Citrix_Logo_Trademark_RGB" transform="translate(231.000000, 472.000000)" filter="url(#filter-1)">
                <g>
                    <path d="M0,49.3521127 C0,31.3239437 12.056338,18.7042254 29.2957746,18.7042254 C40.9014085,18.7042254 50.3661972,24.5633803 54.1971831,33.5774648 C54.6478873,34.3661972 54.7605634,35.2676056 54.7605634,36.1690141 C54.7605634,38.084507 53.1830986,39.5492958 51.3802817,39.5492958 C51.2676056,39.5492958 51.2676056,39.5492958 51.1549296,39.5492958 C49.4647887,39.5492958 48,38.4225352 47.5492958,36.8450704 C44.6197183,29.5211268 37.8591549,25.3521127 29.4084507,25.3521127 C16.5633803,25.3521127 7.43661972,35.1549296 7.43661972,49.3521127 C7.43661972,63.4366197 16.3380282,73.2394366 29.2957746,73.2394366 C37.7464789,73.2394366 44.1690141,69.1830986 47.5492958,60.6197183 C48,59.0422535 49.4647887,57.915493 51.0422535,57.915493 C53.0704225,57.915493 54.6478873,59.4929577 54.6478873,61.5211268 C54.6478873,61.5211268 54.6478873,61.6338028 54.6478873,61.6338028 C54.6478873,62.4225352 54.5352113,63.2112676 54.1971831,64 C50.7042254,73.6901408 41.3521127,79.8873239 29.2957746,79.8873239 C11.943662,79.8873239 0,67.3802817 0,49.3521127 Z" id="Path" fill="#000000" fill-rule="nonzero"></path>
                    <path d="M97.915493,74.9295775 C97.915493,77.4084507 96.5633803,78.9859155 94.1971831,78.9859155 C91.8309859,78.9859155 90.5915493,77.4084507 90.5915493,74.9295775 L90.5915493,4.16901408 C90.5915493,1.57746479 91.943662,0 94.3098592,0 C96.6760563,0 97.915493,1.46478873 97.915493,4.16901408 L97.915493,20.2816901 L110.647887,20.2816901 C112.901408,20.2816901 114.253521,21.5211268 114.253521,23.5492958 C114.253521,25.5774648 112.901408,26.8169014 110.647887,26.8169014 L97.915493,26.8169014 L97.915493,74.9295775 Z" id="Path" fill="#000000" fill-rule="nonzero"></path>
                    <path d="M155.042254,24.2253521 C155.042254,26.1408451 153.577465,27.7183099 151.661972,27.7183099 C151.549296,27.7183099 151.43662,27.7183099 151.323944,27.7183099 C150.309859,27.7183099 149.408451,27.3802817 148.619718,26.9295775 C146.816901,26.028169 144.788732,25.5774648 142.647887,25.6901408 C134.760563,25.6901408 129.690141,32.5633803 129.690141,41.2394366 L129.690141,74.9295775 C129.690141,77.5211268 128.450704,78.9859155 126.084507,78.9859155 C123.71831,78.9859155 122.366197,77.5211268 122.366197,74.9295775 L122.366197,23.7746479 C122.366197,21.1830986 123.71831,19.6056338 126.084507,19.6056338 C128.450704,19.6056338 129.690141,21.0704225 129.690141,23.7746479 L129.690141,25.2394366 C132.957746,20.9577465 138.140845,18.5915493 143.549296,18.7042254 C146.929577,18.5915493 150.197183,19.3802817 153.126761,20.9577465 C154.366197,21.6338028 155.042254,22.8732394 155.042254,24.2253521 Z" id="Path" fill="#000000" fill-rule="nonzero"></path>
                    <path d="M162.591549,23.7746479 C162.591549,21.1830986 163.943662,19.6056338 166.309859,19.6056338 C168.676056,19.6056338 169.915493,21.0704225 169.915493,23.7746479 L169.915493,74.9295775 C169.915493,77.4084507 168.56338,78.9859155 166.197183,78.9859155 C163.830986,78.9859155 162.591549,77.4084507 162.591549,74.9295775 L162.591549,23.7746479 Z" id="Path" fill="#000000" fill-rule="nonzero"></path>
                    <g id="Group" transform="translate(65.352113, 0.000000)" fill="#000000" fill-rule="nonzero">
                        <path d="M2.47887324,23.7746479 C2.47887324,21.1830986 3.83098592,19.6056338 6.1971831,19.6056338 C8.56338028,19.6056338 9.8028169,21.0704225 9.8028169,23.7746479 L9.8028169,74.9295775 C9.8028169,77.4084507 8.45070423,78.9859155 6.08450704,78.9859155 C3.71830986,78.9859155 2.47887324,77.4084507 2.47887324,74.9295775 L2.47887324,23.7746479 Z" id="Path"></path>
                        <circle id="Oval" cx="6.1971831" cy="5.85915493" r="5.85915493"></circle>
                    </g>
                    <path d="M208.56338,53.8591549 L188.394366,77.5211268 C187.71831,78.4225352 186.591549,78.9859155 185.464789,78.9859155 C183.549296,78.9859155 181.971831,77.5211268 181.971831,75.6056338 C181.971831,75.6056338 181.971831,75.6056338 181.971831,75.6056338 C181.971831,74.5915493 182.309859,73.6901408 182.985915,73.0140845 L204.056338,49.1267606 L183.774648,25.8028169 C182.985915,25.1267606 182.535211,24.1126761 182.535211,23.0985915 C182.535211,21.1830986 184.112676,19.6056338 186.140845,19.7183099 C186.140845,19.7183099 186.253521,19.7183099 186.253521,19.7183099 C187.380282,19.7183099 188.394366,20.2816901 189.070423,21.1830986 L208.676056,44.2816901 L228.28169,21.1830986 C228.957746,20.2816901 229.971831,19.7183099 231.098592,19.7183099 C233.014085,19.6056338 234.704225,21.0704225 234.704225,22.9859155 C234.704225,22.9859155 234.704225,23.0985915 234.704225,23.0985915 C234.704225,24.1126761 234.253521,25.1267606 233.464789,25.8028169 L213.183099,49.1267606 L234.253521,73.0140845 C234.929577,73.6901408 235.267606,74.7042254 235.267606,75.6056338 C235.267606,77.5211268 233.690141,79.0985915 231.774648,78.9859155 C231.774648,78.9859155 231.774648,78.9859155 231.774648,78.9859155 C230.647887,78.9859155 229.521127,78.4225352 228.84507,77.5211268 L208.56338,53.8591549 Z" id="Path" fill="#000000" fill-rule="nonzero"></path>
                    <path d="M249.464789,72.7887324 L247.323944,72.7887324 L247.323944,78.4225352 L246.422535,78.4225352 L246.422535,72.7887324 L244.28169,72.7887324 L244.28169,72.1126761 L249.464789,72.1126761 L249.464789,72.7887324 Z M257.126761,72.1126761 L257.126761,78.4225352 L256.338028,78.4225352 L256.338028,74.3661972 L256.450704,73.1267606 L256.450704,73.1267606 L256.338028,73.5774648 L254.309859,78.3098592 L253.633803,78.3098592 L251.605634,73.5774648 L251.380282,73.1267606 L251.380282,73.1267606 L251.492958,74.3661972 L251.492958,78.4225352 L250.704225,78.4225352 L250.704225,72.1126761 L251.71831,72.1126761 L253.633803,76.6197183 L253.971831,77.4084507 L253.971831,77.4084507 L254.197183,76.6197183 L256.112676,72.1126761 L257.126761,72.1126761 Z" id="Shape" fill="#000000" fill-rule="nonzero"></path>
                    <circle id="Oval" fill="#000000" fill-rule="nonzero" cx="208.56338" cy="5.85915493" r="5.85915493"></circle>
                </g>
            </g>
        </g>
    </g>
</svg>